<svg width="21" height="20" viewBox="0 0 21 20" fill="none" xmlns="http://www.w3.org/2000/svg">
<path d="M9.51621 17.1419C5.42934 17.1419 2.10481 13.8167 2.10481 9.73059C2.10481 5.643 5.42934 2.31852 9.51621 2.31852C13.6031 2.31852 16.9283 5.64305 16.9283 9.73059C16.9283 11.2753 16.4525 12.7107 15.6406 13.8994L17.1167 15.3215C18.2648 13.7544 18.9434 11.8217 18.9434 9.73023C18.9434 4.49918 14.7027 0.258545 9.47169 0.258545C4.24064 0.258545 0 4.49913 0 9.73023C0 14.9613 4.24058 19.2019 9.47169 19.2019C11.9337 19.2019 14.1761 18.2624 15.8605 16.7226L14.2707 15.4108C12.9828 16.4905 11.3243 17.1419 9.51621 17.1419Z" fill="#569876"/>
<path d="M14.1338 12.4479C14.6028 11.6508 14.8722 10.7222 14.8722 9.73062C14.8722 6.76649 12.4696 4.36389 9.50618 4.36389C6.54206 4.36389 4.1394 6.76649 4.1394 9.73062C4.1394 12.694 6.54206 15.0967 9.50618 15.0967C10.682 15.0967 11.7696 14.7182 12.6538 14.0767L10.7446 12.5015C10.3767 12.6611 9.9713 12.7502 9.54478 12.7502C7.87695 12.7502 6.5249 11.3983 6.5249 9.73026C6.5249 8.06248 7.877 6.71038 9.54478 6.71038C11.2124 6.71038 12.5647 8.06248 12.5647 9.73026C12.5647 10.0925 12.4995 10.4391 12.3824 10.7607L14.1338 12.4479Z" fill="#569876"/>
<path d="M20.3929 17.6774L18.7128 16.0484C18.732 16.0201 18.5925 15.9703 18.4552 15.9656L17.1034 16.1669L17.0179 16.0851L11.6163 10.8812L11.6287 10.8672C11.6634 10.8284 11.6599 10.7689 11.6212 10.7343L11.6198 10.7331C11.581 10.6984 11.5214 10.7018 11.4869 10.7407L11.4731 10.7561C11.2729 10.6214 11.0129 10.6221 10.8146 10.7512L9.53016 9.76023C9.51924 9.75178 9.49713 9.76023 9.48012 9.77925L9.47951 9.77997C9.4625 9.79904 9.45668 9.82192 9.46631 9.83186L10.5995 10.9975C10.5009 11.2068 10.5321 11.459 10.6857 11.6389L10.6719 11.6544C10.6372 11.6932 10.6407 11.7528 10.6794 11.7873L10.6808 11.7886C10.7196 11.8232 10.7791 11.8197 10.8137 11.781L10.8262 11.767L16.6118 16.5409L16.8283 16.7196L16.6977 16.6118L16.6525 17.9548C16.6488 18.0644 16.6964 18.1694 16.7811 18.2389L18.5758 19.7102C18.6113 19.7392 18.6646 19.7137 18.6642 19.6679L18.6508 18.2236L19.3414 18.7937C19.3757 18.8221 19.4188 18.8343 19.4606 18.831C19.4864 18.8291 19.5114 18.8205 19.5342 18.8068C19.5391 18.8039 19.5442 18.8014 19.5488 18.7978C19.5503 18.7966 19.5517 18.795 19.5532 18.7938C19.56 18.7883 19.5668 18.7825 19.5728 18.7758L19.5731 18.7755L19.5732 18.7754L19.5753 18.7729L19.5754 18.7729L19.5757 18.7725C19.5883 18.7584 19.5975 18.7423 19.6044 18.7256C19.6056 18.7227 19.6074 18.7199 19.6085 18.7169C19.6086 18.7166 19.6086 18.7162 19.6087 18.7158C19.6155 18.6961 19.6186 18.6754 19.6178 18.6548C19.6163 18.6129 19.5993 18.5715 19.5671 18.5405L19.1328 18.1226L18.9264 17.9238L20.3598 17.7729C20.4069 17.7679 20.4268 17.7103 20.3929 17.6774Z" fill="#569876"/>
</svg>
