<svg width="308" height="206" viewBox="0 0 308 206" fill="none" xmlns="http://www.w3.org/2000/svg">
<g filter="url(#filter0_d_236_7271)">
<rect x="8" y="5.25854" width="292.484" height="190.328" rx="7.29691" fill="#F4F4F4"/>
<path d="M198.936 100.503C198.936 125.142 178.962 145.116 154.323 145.116C129.684 145.116 109.71 125.142 109.71 100.503C109.71 75.8639 129.684 55.89 154.323 55.89C178.962 55.89 198.936 75.8639 198.936 100.503ZM117.248 100.503C117.248 120.979 133.847 137.578 154.323 137.578C174.799 137.578 191.398 120.979 191.398 100.503C191.398 80.0272 174.799 63.4283 154.323 63.4283C133.847 63.4283 117.248 80.0272 117.248 100.503Z" fill="url(#paint0_linear_236_7271)"/>
<path d="M134.68 105.728V102.847L143.246 90.5874H147.515V102.532H149.82V105.728H147.515V109.448H143.848V105.728H134.68ZM144.084 94.5166L138.714 102.532H144.084V94.5166ZM154.198 109.631C153.535 109.631 152.985 109.43 152.548 109.029C152.129 108.609 151.92 108.094 151.92 107.483C151.92 106.872 152.129 106.365 152.548 105.964C152.985 105.545 153.535 105.335 154.198 105.335C154.845 105.335 155.377 105.545 155.796 105.964C156.215 106.365 156.425 106.872 156.425 107.483C156.425 108.094 156.215 108.609 155.796 109.029C155.377 109.43 154.845 109.631 154.198 109.631ZM162.156 99.3365C160.409 98.4284 159.536 97.0226 159.536 95.1191C159.536 94.1761 159.772 93.3204 160.243 92.552C160.732 91.7662 161.457 91.1462 162.417 90.6922C163.395 90.2207 164.583 89.9849 165.98 89.9849C167.377 89.9849 168.556 90.2207 169.516 90.6922C170.494 91.1462 171.219 91.7662 171.69 92.552C172.179 93.3204 172.424 94.1761 172.424 95.1191C172.424 96.0796 172.188 96.9265 171.717 97.66C171.245 98.376 170.616 98.9348 169.831 99.3365C170.791 99.7556 171.542 100.367 172.083 101.17C172.625 101.973 172.895 102.925 172.895 104.025C172.895 105.213 172.59 106.252 171.979 107.142C171.385 108.016 170.564 108.688 169.516 109.159C168.468 109.631 167.29 109.867 165.98 109.867C164.67 109.867 163.491 109.631 162.444 109.159C161.413 108.688 160.593 108.016 159.981 107.142C159.388 106.252 159.091 105.213 159.091 104.025C159.091 102.925 159.361 101.973 159.903 101.17C160.444 100.349 161.195 99.7381 162.156 99.3365ZM168.861 95.643C168.861 94.7873 168.599 94.1237 168.076 93.6522C167.569 93.1807 166.871 92.9449 165.98 92.9449C165.107 92.9449 164.408 93.1807 163.884 93.6522C163.378 94.1237 163.125 94.796 163.125 95.6692C163.125 96.455 163.387 97.0837 163.911 97.5552C164.452 98.0267 165.142 98.2625 165.98 98.2625C166.818 98.2625 167.508 98.0267 168.049 97.5552C168.591 97.0662 168.861 96.4288 168.861 95.643ZM165.98 100.934C164.985 100.934 164.173 101.188 163.544 101.694C162.933 102.2 162.627 102.925 162.627 103.868C162.627 104.741 162.924 105.457 163.518 106.016C164.129 106.557 164.95 106.828 165.98 106.828C167.01 106.828 167.822 106.549 168.416 105.99C169.01 105.431 169.307 104.724 169.307 103.868C169.307 102.943 169.001 102.227 168.39 101.72C167.779 101.196 166.975 100.934 165.98 100.934Z" fill="#00140A"/>
<path d="M131.612 38.3167L129.033 43.289V45.9445H127.503V43.289L124.913 38.3167H126.64L128.279 41.8028L129.907 38.3167H131.612ZM135.182 46.0428C134.6 46.0428 134.075 45.9153 133.609 45.6603C133.143 45.3981 132.775 45.0302 132.505 44.5566C132.243 44.0831 132.112 43.5367 132.112 42.9174C132.112 42.2982 132.246 41.7518 132.516 41.2782C132.793 40.8047 133.168 40.4404 133.642 40.1854C134.115 39.9231 134.643 39.792 135.226 39.792C135.809 39.792 136.337 39.9231 136.811 40.1854C137.284 40.4404 137.656 40.8047 137.925 41.2782C138.202 41.7518 138.341 42.2982 138.341 42.9174C138.341 43.5367 138.199 44.0831 137.914 44.5566C137.638 45.0302 137.259 45.3981 136.778 45.6603C136.304 45.9153 135.773 46.0428 135.182 46.0428ZM135.182 44.7096C135.459 44.7096 135.718 44.644 135.958 44.5129C136.206 44.3745 136.403 44.1705 136.548 43.9009C136.694 43.6314 136.767 43.3035 136.767 42.9174C136.767 42.3419 136.614 41.9011 136.308 41.5951C136.009 41.2819 135.641 41.1252 135.204 41.1252C134.767 41.1252 134.399 41.2819 134.101 41.5951C133.809 41.9011 133.663 42.3419 133.663 42.9174C133.663 43.493 133.805 43.9374 134.09 44.2506C134.381 44.5566 134.745 44.7096 135.182 44.7096ZM145.178 39.8904V45.9445H143.637V45.1795C143.441 45.4418 143.182 45.6494 142.861 45.8024C142.548 45.9481 142.206 46.021 141.834 46.021C141.361 46.021 140.942 45.9226 140.577 45.7259C140.213 45.5219 139.925 45.2269 139.714 44.8407C139.51 44.4473 139.408 43.9811 139.408 43.442V39.8904H140.938V43.2234C140.938 43.7042 141.058 44.0758 141.299 44.338C141.539 44.593 141.867 44.7205 142.282 44.7205C142.705 44.7205 143.036 44.593 143.277 44.338C143.517 44.0758 143.637 43.7042 143.637 43.2234V39.8904H145.178ZM148.218 40.8302C148.414 40.5096 148.669 40.2583 148.983 40.0761C149.303 39.894 149.667 39.8029 150.075 39.8029V41.4094H149.671C149.19 41.4094 148.826 41.5223 148.578 41.7481C148.338 41.974 148.218 42.3674 148.218 42.9283V45.9445H146.688V39.8904H148.218V40.8302ZM153.338 42.1197C153.338 41.3693 153.506 40.699 153.841 40.1089C154.183 39.5115 154.646 39.0489 155.229 38.7211C155.819 38.3859 156.478 38.2184 157.207 38.2184C158.059 38.2184 158.806 38.4369 159.447 38.8741C160.088 39.3112 160.536 39.9159 160.791 40.6881H159.032C158.857 40.3238 158.609 40.0506 158.289 39.8685C157.975 39.6864 157.611 39.5953 157.196 39.5953C156.751 39.5953 156.354 39.7009 156.005 39.9122C155.662 40.1162 155.393 40.4076 155.196 40.7865C155.007 41.1653 154.912 41.6097 154.912 42.1197C154.912 42.6224 155.007 43.0668 155.196 43.4529C155.393 43.8317 155.662 44.1268 156.005 44.338C156.354 44.542 156.751 44.644 157.196 44.644C157.611 44.644 157.975 44.553 158.289 44.3708C158.609 44.1814 158.857 43.9046 159.032 43.5403H160.791C160.536 44.3198 160.088 44.9282 159.447 45.3653C158.813 45.7951 158.066 46.01 157.207 46.01C156.478 46.01 155.819 45.8461 155.229 45.5183C154.646 45.1831 154.183 44.7205 153.841 44.1304C153.506 43.5403 153.338 42.8701 153.338 42.1197ZM167.409 40.6116C167.234 40.2911 166.994 40.047 166.688 39.8794C166.382 39.7119 166.025 39.6281 165.617 39.6281C165.165 39.6281 164.764 39.7301 164.415 39.9341C164.065 40.1381 163.792 40.4295 163.595 40.8083C163.398 41.1872 163.3 41.6243 163.3 42.1197C163.3 42.6296 163.398 43.074 163.595 43.4529C163.799 43.8317 164.079 44.1231 164.436 44.3271C164.793 44.5311 165.209 44.6331 165.682 44.6331C166.265 44.6331 166.742 44.4801 167.114 44.1741C167.485 43.8609 167.729 43.4274 167.846 42.8737H165.223V41.7044H169.354V43.0376C169.252 43.5694 169.033 44.0612 168.698 44.5129C168.363 44.9646 167.93 45.3288 167.398 45.6057C166.873 45.8752 166.283 46.01 165.628 46.01C164.892 46.01 164.225 45.8461 163.628 45.5183C163.038 45.1831 162.571 44.7205 162.229 44.1304C161.894 43.5403 161.726 42.8701 161.726 42.1197C161.726 41.3693 161.894 40.699 162.229 40.1089C162.571 39.5115 163.038 39.0489 163.628 38.7211C164.225 38.3859 164.888 38.2184 165.617 38.2184C166.476 38.2184 167.223 38.4297 167.857 38.8522C168.491 39.2675 168.928 39.8539 169.168 40.6116H167.409ZM176.048 40.6772C176.048 41.0852 175.95 41.4676 175.753 41.8246C175.564 42.1816 175.261 42.4694 174.846 42.6879C174.438 42.9065 173.921 43.0158 173.294 43.0158H172.016V45.9445H170.486V38.3167H173.294C173.884 38.3167 174.387 38.4187 174.802 38.6227C175.218 38.8267 175.527 39.1072 175.731 39.4642C175.943 39.8212 176.048 40.2255 176.048 40.6772ZM173.229 41.7809C173.651 41.7809 173.965 41.6862 174.169 41.4968C174.373 41.3001 174.475 41.0269 174.475 40.6772C174.475 39.9341 174.059 39.5625 173.229 39.5625H172.016V41.7809H173.229ZM181.812 44.491H178.774L178.271 45.9445H176.665L179.407 38.3058H181.189L183.932 45.9445H182.314L181.812 44.491ZM181.396 43.2671L180.293 40.0761L179.189 43.2671H181.396Z" fill="black"/>
</g>
<defs>
<filter id="filter0_d_236_7271" x="0.703095" y="0.393942" width="307.078" height="204.921" filterUnits="userSpaceOnUse" color-interpolation-filters="sRGB">
<feFlood flood-opacity="0" result="BackgroundImageFix"/>
<feColorMatrix in="SourceAlpha" type="matrix" values="0 0 0 0 0 0 0 0 0 0 0 0 0 0 0 0 0 0 127 0" result="hardAlpha"/>
<feOffset dy="2.4323"/>
<feGaussianBlur stdDeviation="3.64845"/>
<feComposite in2="hardAlpha" operator="out"/>
<feColorMatrix type="matrix" values="0 0 0 0 0 0 0 0 0 0 0 0 0 0 0 0 0 0 0.25 0"/>
<feBlend mode="normal" in2="BackgroundImageFix" result="effect1_dropShadow_236_7271"/>
<feBlend mode="normal" in="SourceGraphic" in2="effect1_dropShadow_236_7271" result="shape"/>
</filter>
<linearGradient id="paint0_linear_236_7271" x1="120.352" y1="68.9874" x2="198.936" y2="107.87" gradientUnits="userSpaceOnUse">
<stop stop-color="#ABCBBB"/>
<stop offset="1" stop-color="#ABCBBB" stop-opacity="0"/>
</linearGradient>
</defs>
</svg>
