<svg width="22" height="22" viewBox="0 0 22 22" fill="none" xmlns="http://www.w3.org/2000/svg">
<path d="M19.2304 14.4063C19.2304 14.7831 18.9221 15.0914 18.5453 15.0914H17.3828V17.6413H15.246V16.892C15.246 16.2861 14.7515 15.7934 14.1477 15.7934C13.5418 15.7934 13.0494 16.2861 13.0494 16.892V17.6413H10.9148V15.5046H11.6596C11.6618 15.5046 11.6618 15.5046 11.6618 15.5046H11.6663C12.2698 15.5046 12.7646 15.01 12.7646 14.4063C12.7646 13.8004 12.2698 13.308 11.6663 13.308H10.9148V11.1691H13.4604V10.0087C13.4604 9.62971 13.7685 9.32141 14.1477 9.32141C14.3361 9.32141 14.5074 9.39849 14.6316 9.52266C14.7557 9.64684 14.8328 9.81812 14.8328 10.0087V11.1691H17.3828V13.719H18.5453C18.9221 13.719 19.2304 14.0273 19.2304 14.4063Z" fill="#2C7E54" stroke="#CCE0D6" stroke-width="0.5"/>
<path d="M12.3472 14.4063C12.3472 14.7831 12.041 15.0914 11.662 15.0914H10.4995V17.6413H7.95383V18.8039C7.95383 19.1829 7.64553 19.489 7.26871 19.489C6.88976 19.489 6.58145 19.1807 6.58145 18.8039V17.6413H4.03152V15.0914H2.86896C2.49214 15.0914 2.18384 14.7831 2.18384 14.4063C2.18384 14.0271 2.49214 13.719 2.86896 13.719H4.03152V11.1691H6.58145V10.0087C6.58145 9.62971 6.88761 9.32141 7.26657 9.32141C7.64339 9.32141 7.94955 9.62971 7.94955 10.0087V11.1691H10.4995V13.719H11.662C12.041 13.719 12.3472 14.0273 12.3472 14.4063Z" fill="#2C7E54" stroke="#CCE0D6" stroke-width="0.5"/>
<path d="M8.65169 7.52084C8.65169 8.12675 9.14412 8.61918 9.75002 8.61918H10.4994V10.758H8.36693V10.0087C8.36693 9.40278 7.87236 8.91035 7.2686 8.91035C7.26646 8.91035 7.26646 8.91035 7.26646 8.91035C7.26432 8.91035 7.26432 8.91035 7.26432 8.91035C6.65842 8.91035 6.16599 9.40278 6.16599 10.0087V10.758H4.02713V8.20811H2.86456C2.48775 8.20811 2.17944 7.8998 2.17944 7.52299C2.17944 7.14403 2.48775 6.83572 2.86456 6.83572H4.02713V4.28579H6.57706V3.12323C6.57706 2.74641 6.88536 2.43811 7.26432 2.43811C7.64113 2.43811 7.94944 2.74641 7.94944 3.12323V4.28579H10.4994V6.42465H9.75002C9.14412 6.42465 8.65169 6.91708 8.65169 7.52084Z" fill="#2C7E54" stroke="#CCE0D6" stroke-width="0.5"/>
<path d="M15.5329 7.52084C15.5329 8.12675 16.0277 8.61918 16.6312 8.61918H17.3829V10.758H15.2462V10.0087C15.2462 9.70466 15.122 9.43062 14.9229 9.2315C14.7236 9.03239 14.4497 8.91035 14.1479 8.91035C13.542 8.91035 13.0495 9.40278 13.0495 10.0087V10.758H10.9107V8.20811H9.74811C9.37129 8.20811 9.06299 7.8998 9.06299 7.52084C9.06299 7.14403 9.37129 6.83572 9.74811 6.83572H10.9107V4.28579H13.4606V3.12323C13.4606 2.74641 13.7687 2.43811 14.1479 2.43811C14.5247 2.43811 14.833 2.74641 14.833 3.12323V4.28579H17.3829V6.42465H16.6312C16.0274 6.42465 15.5329 6.91708 15.5329 7.52084Z" fill="#2C7E54" stroke="#CCE0D6" stroke-width="0.5"/>
</svg>
