<svg width="22" height="22" viewBox="0 0 22 22" fill="none" xmlns="http://www.w3.org/2000/svg">
<path d="M5.35239 9.11154L3.8751 8.27655C4.44085 7.42889 5.16844 6.7013 6.0161 6.13555C7.31227 5.26338 8.81461 4.74661 10.373 4.63685V6.23189C9.36341 6.25973 8.37641 6.53731 7.50029 7.03982C6.62416 7.54233 5.8862 8.25412 5.35239 9.11154Z" fill="#2C7E54"/>
<path d="M11.1759 6.23189V4.62614C12.8295 4.68572 14.4219 5.26648 15.7255 6.28542C16.4314 6.85614 17.0421 7.53547 17.5347 8.29796L16.0574 9.12224C15.5018 8.30834 14.7732 7.62722 13.9238 7.12757C13.0744 6.62792 12.1251 6.32207 11.1438 6.23189H11.1759Z" fill="#2C7E54"/>
<path d="M17.9629 16.316C17.449 17.3865 16.8924 17.2259 16.6462 17.0975C16.4801 17.0202 16.3499 16.8823 16.2822 16.7121C16.2442 16.5745 16.2341 16.4307 16.2525 16.2891C16.2708 16.1476 16.3173 16.0111 16.3892 15.8878C16.5693 15.5458 16.7163 15.1873 16.8282 14.8173L17.1386 14.9351C17.188 14.9452 17.239 14.9452 17.2885 14.9351C17.3703 14.9321 17.4494 14.9052 17.516 14.8576C17.5827 14.81 17.6338 14.7439 17.6631 14.6674C17.6981 14.568 17.6931 14.4588 17.6492 14.3629C17.6053 14.2671 17.5258 14.192 17.4276 14.1536L17.0208 14.0037C17.0246 13.9859 17.0283 13.968 17.032 13.9501C17.3119 12.5715 17.1315 11.1385 16.5177 9.87159L17.9308 9.06872C18.3028 9.8057 18.5557 10.597 18.6801 11.4131C18.9738 13.082 18.7223 14.8011 17.9629 16.316Z" fill="#2C7E54"/>
<path d="M5.13829 16.2304C5.18976 16.3913 5.17998 16.5655 5.11082 16.7196C5.04167 16.8737 4.91802 16.9968 4.76362 17.0654C4.6025 17.1439 4.41948 17.1656 4.24448 17.1267C4.06948 17.0878 3.91284 16.9907 3.80017 16.8513C2.93147 15.4959 2.52233 13.8969 2.63332 12.2909C2.71816 11.1424 3.00822 10.0185 3.48972 8.97237L4.91349 9.80736C4.46696 10.8263 4.25532 11.9327 4.29423 13.0445C4.33315 14.1563 4.62162 15.2451 5.13829 16.2304Z" fill="#2C7E54"/>
<path fill-rule="evenodd" clip-rule="evenodd" d="M16.2608 5.67523C17.9943 7.05078 19.1419 9.0323 19.4723 11.2204C19.7999 13.0688 19.5182 14.9735 18.6694 16.6479C17.9736 18.1466 17.0101 18.1144 16.3143 17.8254C16.1291 17.7451 15.9622 17.6277 15.8242 17.4804C15.6861 17.3331 15.5796 17.159 15.5114 16.969C15.4295 16.73 15.4005 16.476 15.4264 16.2246C15.4522 15.9732 15.5324 15.7305 15.6613 15.5131C15.8253 15.1689 15.9578 14.8107 16.0574 14.4426L16.8282 14.8173C16.7163 15.1873 16.5693 15.5458 16.3892 15.8878C16.3173 16.0111 16.2708 16.1476 16.2525 16.2891C16.2341 16.4307 16.2442 16.5745 16.2822 16.7121C16.3499 16.8823 16.4801 17.0202 16.6462 17.0975C16.8924 17.2259 17.449 17.3865 17.9629 16.316C18.7223 14.8011 18.9738 13.082 18.6801 11.4131C18.5557 10.597 18.3028 9.8057 17.9308 9.06872L16.5177 9.87159C17.1315 11.1385 17.3119 12.5715 17.032 13.9501L16.2608 13.6826C16.5205 12.3859 16.2999 11.039 15.6399 9.893C15.1296 9.03417 14.4085 8.31987 13.5449 7.8178C12.6812 7.31573 11.7037 7.04252 10.7049 7.02406C9.69835 6.99622 8.70403 7.25005 7.83399 7.75694C6.96395 8.26383 6.25277 9.00364 5.78059 9.893L5.7913 9.98935C4.19625 12.7405 5.90905 15.952 5.90905 15.952C5.91504 15.9875 5.91504 16.0237 5.90905 16.0591C6.01427 16.4065 5.98979 16.7804 5.84016 17.1112C5.69052 17.4419 5.42591 17.7071 5.09547 17.8575C4.87883 17.9497 4.64578 17.997 4.41035 17.9967C4.16695 17.9996 3.92619 17.946 3.707 17.8401C3.48781 17.7343 3.29618 17.579 3.14716 17.3865C2.15978 15.8551 1.6976 14.044 1.83045 12.2267C1.86203 10.8895 2.20916 9.57865 2.84353 8.40107C3.4779 7.22348 4.38156 6.21246 5.48085 5.45043C7.03087 4.41849 8.84317 3.85029 10.7049 3.81256C12.7145 3.78563 14.6735 4.44243 16.2608 5.67523ZM5.13829 16.2304C5.18976 16.3913 5.17998 16.5655 5.11082 16.7196C5.04167 16.8737 4.91802 16.9968 4.76362 17.0654C4.6025 17.1439 4.41948 17.1656 4.24448 17.1267C4.06948 17.0878 3.91284 16.9907 3.80017 16.8513C2.93147 15.4959 2.52233 13.8969 2.63332 12.2909C2.71816 11.1424 3.00822 10.0185 3.48972 8.97237L4.91349 9.80736C4.46696 10.8263 4.25532 11.9327 4.29423 13.0445C4.33315 14.1563 4.62162 15.2451 5.13829 16.2304ZM5.35239 9.11154L3.8751 8.27655C4.44085 7.42889 5.16844 6.7013 6.0161 6.13555C7.31227 5.26338 8.81461 4.74661 10.373 4.63685V6.23189C9.36341 6.25973 8.37641 6.53731 7.50029 7.03982C6.62416 7.54233 5.8862 8.25412 5.35239 9.11154ZM11.1759 6.23189V4.62614C12.8295 4.68572 14.4219 5.26648 15.7255 6.28542C16.4314 6.85614 17.0421 7.53547 17.5347 8.29796L16.0574 9.12224C15.5018 8.30834 14.7732 7.62722 13.9238 7.12757C13.0744 6.62792 12.1251 6.32207 11.1438 6.23189H11.1759Z" fill="#CCE0D6"/>
<path d="M16.2608 13.6826L10.9083 11.67C10.8574 11.6403 10.8007 11.622 10.7421 11.6164C10.6834 11.6108 10.6242 11.618 10.5687 11.6375C10.5131 11.657 10.4624 11.6883 10.4201 11.7293C10.3778 11.7703 10.3449 11.82 10.3237 11.875C10.3025 11.9299 10.2935 11.9888 10.2973 12.0476C10.3011 12.1064 10.3176 12.1637 10.3457 12.2154C10.3738 12.2672 10.4128 12.3123 10.4601 12.3475C10.5073 12.3827 10.5616 12.4072 10.6193 12.4194L16.0574 14.4426L16.8282 14.8173L17.1386 14.9351C17.188 14.9452 17.239 14.9452 17.2885 14.9351C17.3703 14.9321 17.4494 14.9052 17.516 14.8576C17.5827 14.81 17.6338 14.7439 17.6631 14.6674C17.6981 14.568 17.6931 14.4588 17.6492 14.3629C17.6053 14.2671 17.5258 14.192 17.4276 14.1536L17.0208 14.0037L17.032 13.9501L16.2608 13.6826Z" fill="#2C7E54"/>
<path d="M5.32779 9.15507L5.36951 9.17865L5.39484 9.13797C5.92428 8.28756 6.6562 7.5816 7.52516 7.08319C8.39412 6.58479 9.37305 6.30948 10.3744 6.28188L10.423 6.28053V6.23189V4.63685V4.5832L10.3695 4.58697C8.8024 4.69734 7.29168 5.21699 5.98827 6.09401C5.13516 6.66341 4.4029 7.39568 3.83352 8.24879L3.80362 8.29358L3.8505 8.32008L5.32779 9.15507ZM6.04386 6.17714L6.04402 6.17703C7.31809 5.31974 8.79248 4.80775 10.323 4.69066V6.18345C9.3221 6.21895 8.34463 6.4979 7.47541 6.99645C6.60598 7.49512 5.87151 8.19821 5.33544 9.04452L3.94675 8.25961C4.50446 7.43653 5.21661 6.72926 6.04386 6.17714ZM11.1777 4.57618L11.1259 4.57431V4.62614V6.23189H11.1415L11.1392 6.28168C12.1132 6.37119 13.0554 6.67475 13.8985 7.17067C14.7415 7.66658 15.4646 8.34261 16.0161 9.15043L16.0419 9.18817L16.0818 9.16591L17.559 8.34162L17.6056 8.31563L17.5767 8.27083C17.0812 7.50389 16.467 6.8206 15.757 6.24654L15.7563 6.24602C14.4444 5.22059 12.8418 4.63613 11.1777 4.57618ZM13.9492 7.08447C13.1158 6.59426 12.187 6.28921 11.2259 6.18968V4.67815C12.8502 4.74748 14.4127 5.32291 15.6944 6.32455C16.3822 6.88071 16.9791 7.54059 17.4636 8.28037L16.0728 9.05639C15.5164 8.25305 14.7918 7.58013 13.9492 7.08447ZM17.9182 16.2936L17.9178 16.2944C17.6639 16.8234 17.4046 17.0373 17.1884 17.1089C16.9727 17.1804 16.7868 17.1145 16.6693 17.0531L16.6693 17.0531L16.6673 17.0521C16.5136 16.9806 16.3929 16.8533 16.3297 16.6961C16.294 16.5658 16.2846 16.4296 16.302 16.2956C16.3196 16.1606 16.3639 16.0305 16.4324 15.913L16.4325 15.913L16.4335 15.9111C16.6067 15.582 16.7496 15.2379 16.8603 14.883L17.1209 14.9818L17.1206 14.9824L17.1286 14.984C17.1833 14.9952 17.2396 14.9955 17.2944 14.9849C17.3845 14.9808 17.4716 14.9507 17.5451 14.8983C17.6197 14.845 17.677 14.7709 17.7098 14.6854L17.7098 14.6854L17.7103 14.684C17.7496 14.5723 17.744 14.4497 17.6947 14.3421C17.6453 14.2345 17.5561 14.1502 17.4459 14.107L17.4449 14.1067L17.0786 13.9717L17.0809 13.9602L17.0809 13.9602L17.081 13.96L17.0899 13.9172L17.0895 13.9171C17.3563 12.5563 17.179 11.1452 16.583 9.89202L17.9096 9.13823C18.2665 9.8571 18.5097 10.627 18.6307 11.4206L18.6309 11.4218C18.9227 13.0801 18.6728 14.7883 17.9182 16.2936ZM17.1524 14.8868L16.848 14.7714L16.0793 14.3977L16.0794 14.3975L16.0771 14.3966L16.0249 14.3712L16.0234 14.3767L10.6367 12.3725L10.6369 12.372L10.6296 12.3705C10.579 12.3598 10.5314 12.3383 10.49 12.3074C10.4485 12.2765 10.4143 12.237 10.3897 12.1916C10.365 12.1462 10.3505 12.096 10.3472 12.0444C10.3438 11.9928 10.3517 11.9412 10.3703 11.893C10.3889 11.8447 10.4178 11.8012 10.4549 11.7652C10.492 11.7292 10.5364 11.7017 10.5852 11.6847C10.634 11.6676 10.6858 11.6613 10.7373 11.6662C10.7887 11.6711 10.8385 11.6872 10.8831 11.7132L10.8827 11.7138L10.8907 11.7168L16.2034 13.7144L16.2032 13.7155L16.2432 13.7294L16.2444 13.7298L16.9741 13.9829L16.9719 13.9934L16.9719 13.9936L16.963 14.0357L16.9631 14.0357L17.0036 14.0506L17.4094 14.2002C17.4096 14.2002 17.4097 14.2003 17.4098 14.2003C17.4958 14.2341 17.5653 14.2998 17.6038 14.3838C17.6422 14.4676 17.6467 14.5631 17.6162 14.6502C17.5904 14.7172 17.5454 14.7751 17.487 14.8169C17.4283 14.8588 17.3587 14.8825 17.2867 14.8851L17.2866 14.8844L17.2785 14.8861C17.2369 14.8946 17.1941 14.8948 17.1524 14.8868ZM16.9941 13.884L16.3182 13.6496C16.567 12.3542 16.342 11.0119 15.6832 9.86805L15.6829 9.86747C15.1683 9.00131 14.441 8.28092 13.57 7.77457C12.6991 7.26826 11.7133 6.99273 10.7061 6.97408C9.69028 6.94602 8.68684 7.20219 7.80882 7.71374C6.93073 8.22532 6.21297 8.97197 5.73643 9.86956L5.7292 9.88319L5.7309 9.89853L5.73979 9.97856C4.94231 11.3647 4.97368 12.8629 5.203 14.0122C5.31812 14.5891 5.48336 15.0794 5.61984 15.4256C5.68809 15.5987 5.74919 15.7359 5.79331 15.8299C5.81537 15.8769 5.83318 15.9132 5.84553 15.9377L5.85979 15.9657L5.86092 15.9679C5.86477 15.9954 5.86439 16.0233 5.85975 16.0508L5.85779 16.0623L5.8612 16.0736C5.96291 16.4094 5.93924 16.7708 5.7946 17.0906C5.65004 17.4101 5.39448 17.6663 5.07533 17.8118C4.86506 17.9011 4.63889 17.947 4.41042 17.9467L4.40975 17.9467C4.17408 17.9495 3.94097 17.8976 3.72875 17.7951C3.51717 17.6929 3.33211 17.5432 3.18801 17.3576C2.20732 15.8357 1.74831 14.0361 1.88032 12.2303L1.88038 12.2303L1.88043 12.2279C1.91183 10.8985 2.25691 9.59543 2.88755 8.42478C3.51811 7.25426 4.41632 6.2493 5.50896 5.49178C7.05092 4.46532 8.85374 3.90012 10.7057 3.86256C12.7038 3.83581 14.6517 4.48885 16.2299 5.71457C17.9534 7.08224 19.0943 9.05236 19.4228 11.2279L19.4228 11.2279L19.4231 11.2292C19.7488 13.0668 19.4687 14.9606 18.6248 16.6253L18.6241 16.6268C18.2799 17.3682 17.8736 17.7224 17.4755 17.8598C17.0767 17.9974 16.6754 17.9212 16.3338 17.7794C16.155 17.7018 15.994 17.5884 15.8606 17.4462C15.7273 17.304 15.6245 17.1359 15.5586 16.9525C15.4791 16.7204 15.451 16.4738 15.4761 16.2297C15.5012 15.9855 15.5791 15.7498 15.7043 15.5386L15.7045 15.5387L15.7064 15.5346C15.863 15.2059 15.9912 14.8644 16.0896 14.5139L16.7678 14.8436C16.6586 15.1958 16.5172 15.5372 16.3455 15.8636C16.2706 15.9924 16.2221 16.1349 16.2029 16.2827C16.1836 16.4309 16.1942 16.5814 16.234 16.7254L16.2337 16.7255L16.2357 16.7306C16.308 16.9123 16.4469 17.0596 16.624 17.1423C16.7528 17.2093 16.968 17.2873 17.2199 17.2038C17.4721 17.1202 17.7479 16.8793 18.0078 16.338C18.7718 14.8138 19.0248 13.0842 18.7295 11.405C18.6043 10.5839 18.3497 9.78771 17.9754 9.04619L17.9517 8.9993L17.9061 9.02525L16.493 9.82812L16.4523 9.85125L16.4727 9.89339C17.0734 11.1332 17.2557 12.5334 16.9941 13.884ZM5.18592 16.2151L5.18664 16.2149L5.18257 16.2071C4.66938 15.2285 4.38285 14.147 4.3442 13.0427C4.30555 11.9384 4.51577 10.8395 4.95928 9.82743L4.97713 9.78672L4.93878 9.76423L3.51502 8.92924L3.46739 8.90131L3.4443 8.95147C2.9603 10.003 2.66874 11.1328 2.58346 12.2872L2.58344 12.2875C2.47171 13.9042 2.88358 15.5139 3.75807 16.8782L3.75782 16.8784L3.76128 16.8827C3.88106 17.0309 4.04758 17.1341 4.23363 17.1755C4.41938 17.2168 4.61363 17.1939 4.78472 17.1107C4.95001 17.0371 5.08237 16.9052 5.15644 16.7401C5.23064 16.5747 5.24114 16.3878 5.18592 16.2151ZM4.74334 17.0197L4.74333 17.0196L4.7417 17.0204C4.59074 17.094 4.41928 17.1143 4.25532 17.0779C4.09225 17.0416 3.94619 16.9514 3.84076 16.8219C2.97891 15.4762 2.57304 13.8888 2.6832 12.2945C2.76625 11.1704 3.04693 10.0699 3.5122 9.04352L4.84997 9.82808C4.41256 10.8426 4.20561 11.9417 4.24426 13.0462C4.28339 14.1641 4.57309 15.2588 5.09195 16.2497C5.13821 16.3977 5.12873 16.5576 5.06521 16.6991C5.0011 16.842 4.88647 16.9561 4.74334 17.0197Z" stroke="#569876" stroke-width="0.1"/>
<path d="M8.42482 8.28726C8.35196 8.28515 8.28015 8.30496 8.21868 8.34412C8.15721 8.38329 8.10892 8.44001 8.08005 8.50693C8.05119 8.57386 8.04308 8.64791 8.05678 8.7195C8.07048 8.79108 8.10536 8.85691 8.1569 8.90845C8.20844 8.95998 8.27426 8.99486 8.34585 9.00856C8.41743 9.02226 8.49148 9.01415 8.55841 8.98529C8.62533 8.95642 8.68205 8.90813 8.72122 8.84666C8.76038 8.78519 8.78019 8.71338 8.77808 8.64053C8.77539 8.54769 8.7373 8.45939 8.67163 8.39371C8.60595 8.32804 8.51766 8.28996 8.42482 8.28726Z" fill="#2C7E54"/>
<path d="M12.9958 8.9724C13.1909 8.9724 13.3491 8.81424 13.3491 8.61913C13.3491 8.42403 13.1909 8.26587 12.9958 8.26587C12.8007 8.26587 12.6426 8.42403 12.6426 8.61913C12.6426 8.81424 12.8007 8.9724 12.9958 8.9724Z" fill="#2C7E54"/>
<path d="M15.897 12.6978C15.8991 12.6254 15.8796 12.554 15.8409 12.4928C15.8022 12.4315 15.7462 12.3832 15.6799 12.354C15.6136 12.3248 15.5401 12.316 15.4688 12.3289C15.3975 12.3417 15.3316 12.3755 15.2797 12.4259C15.2277 12.4764 15.1919 12.5412 15.177 12.6121C15.1621 12.6829 15.1686 12.7567 15.1958 12.8238C15.223 12.8909 15.2697 12.9484 15.3297 12.9889C15.3898 13.0294 15.4606 13.051 15.533 13.0511C15.6277 13.0511 15.7187 13.0142 15.7867 12.9483C15.8546 12.8823 15.8942 12.7925 15.897 12.6978Z" fill="#2C7E54"/>
<path d="M5.97342 12.3445C5.90404 12.3466 5.83683 12.3691 5.78016 12.4092C5.72349 12.4493 5.67988 12.5051 5.65478 12.5699C5.62967 12.6346 5.62419 12.7052 5.639 12.773C5.65382 12.8408 5.68828 12.9028 5.73808 12.9511C5.78789 12.9995 5.85083 13.0321 5.91905 13.0448C5.98727 13.0576 6.05774 13.05 6.12167 13.023C6.1856 12.996 6.24015 12.9507 6.27852 12.8929C6.31688 12.8351 6.33736 12.7672 6.33739 12.6978C6.33741 12.6505 6.32793 12.6037 6.30951 12.5601C6.29109 12.5165 6.26411 12.4771 6.23017 12.4441C6.19622 12.4112 6.156 12.3854 6.1119 12.3683C6.06779 12.3512 6.0207 12.3431 5.97342 12.3445Z" fill="#2C7E54"/>
</svg>
