<svg width="14" height="14" viewBox="0 0 14 14" fill="none" xmlns="http://www.w3.org/2000/svg">
<g clip-path="url(#clip0_547_844)">
<path d="M10.9213 2.7002H2.18397C1.58327 2.7002 1.09726 3.19167 1.09726 3.79237L1.0918 10.3454C1.0918 10.9461 1.58327 11.4376 2.18397 11.4376H10.9213C11.522 11.4376 12.0135 10.9461 12.0135 10.3454V3.79237C12.0135 3.19167 11.522 2.7002 10.9213 2.7002ZM10.3753 10.3454H2.73005C2.42971 10.3454 2.18397 10.0997 2.18397 9.79931V4.88454L5.9738 7.25455C6.32876 7.47845 6.77655 7.47845 7.13151 7.25455L10.9213 4.88454V9.79931C10.9213 10.0997 10.6756 10.3454 10.3753 10.3454ZM6.55266 6.5228L2.18397 3.79237H10.9213L6.55266 6.5228Z" fill="#CCE0D6"/>
</g>
<defs>
<clipPath id="clip0_547_844">
<rect width="13.1061" height="13.1061" fill="white" transform="translate(0 0.516113)"/>
</clipPath>
</defs>
</svg>
