<svg width="21" height="21" viewBox="0 0 21 21" fill="none" xmlns="http://www.w3.org/2000/svg">
<g clip-path="url(#clip0_364_497)">
<path d="M9.91979 12.329C9.76898 12.1083 9.7 11.8418 9.72474 11.5757C9.74949 11.3095 9.86642 11.0603 10.0553 10.8712L10.6576 10.2691C10.8467 10.08 11.0958 9.96305 11.3621 9.93832C11.6283 9.9136 11.8947 9.98269 12.1154 10.1336L12.7325 10.5558C12.7395 10.5245 12.7491 10.4939 12.7614 10.4643C12.8437 10.292 13.2312 9.42829 13.299 9.31779C13.4012 9.15084 13.5445 9.01289 13.7153 8.91715C13.886 8.82141 14.0785 8.77108 14.2742 8.77096H15.1257C15.1872 8.77143 15.2485 8.77687 15.3091 8.78723C15.317 8.74718 15.3211 8.70648 15.3213 8.66566V7.48535C15.3212 7.33533 15.2688 7.19005 15.1729 7.07461C15.0771 6.95917 14.944 6.88084 14.7965 6.85316L13.4287 6.59653C13.3282 6.57855 13.2341 6.53451 13.1558 6.46882C13.0776 6.40313 13.018 6.31807 12.9829 6.22214C12.9183 6.03999 12.8444 5.86129 12.7614 5.68676C12.7188 5.59405 12.7011 5.4918 12.7101 5.39015C12.7191 5.28849 12.7545 5.19096 12.8128 5.10721L13.598 3.95914C13.6825 3.83526 13.7212 3.68575 13.7073 3.5364C13.6935 3.38704 13.6279 3.24721 13.522 3.14102L12.6873 2.30654C12.5812 2.20051 12.4414 2.13487 12.292 2.12096C12.1426 2.10706 11.9931 2.14576 11.8692 2.23039L10.7211 3.01582C10.6374 3.07419 10.5398 3.10962 10.4381 3.11857C10.3365 3.12752 10.2342 3.10969 10.1416 3.06684C9.96693 2.98388 9.7881 2.91007 9.60579 2.84572C9.5099 2.81043 9.42492 2.75067 9.35929 2.67236C9.29366 2.59405 9.24966 2.49992 9.23169 2.39934L8.97506 1.03184C8.94753 0.884379 8.86928 0.751194 8.75388 0.655355C8.63848 0.559516 8.49319 0.507063 8.34318 0.50708H7.16284C7.01284 0.507149 6.86758 0.559611 6.75215 0.655402C6.63672 0.751194 6.55837 0.884296 6.53065 1.03171L6.27402 2.39934C6.25601 2.49992 6.21199 2.59404 6.14633 2.67233C6.08067 2.75062 5.99566 2.81036 5.89975 2.84562C5.71755 2.90989 5.53885 2.98371 5.36441 3.06675C5.27169 3.10952 5.1694 3.12731 5.06769 3.11836C4.96597 3.10941 4.86836 3.07403 4.78454 3.01572L3.63648 2.23029C3.51257 2.14574 3.36304 2.10708 3.21368 2.12099C3.06432 2.13489 2.9245 2.20048 2.81832 2.30644L1.98403 3.14102C1.87805 3.24718 1.81245 3.38699 1.79852 3.53634C1.78459 3.6857 1.82322 3.83523 1.90775 3.95914L2.69318 5.10721C2.75151 5.19099 2.7869 5.28858 2.79585 5.39027C2.80481 5.49196 2.787 5.59423 2.74421 5.68691C2.66111 5.86143 2.58721 6.04018 2.52279 6.22242C2.48762 6.31831 2.42794 6.40331 2.3497 6.46895C2.27145 6.53458 2.17737 6.57857 2.07683 6.59653L0.709362 6.85316C0.561903 6.88082 0.428745 6.95914 0.332917 7.07458C0.237089 7.19002 0.184616 7.33532 0.18457 7.48535V8.66566C0.184614 8.81569 0.237087 8.961 0.332915 9.07644C0.428742 9.19189 0.5619 9.27022 0.709362 9.29789L2.07655 9.55435C2.1772 9.57232 2.27138 9.61638 2.34969 9.68212C2.42799 9.74786 2.48769 9.83299 2.52282 9.92901C2.58729 10.1111 2.66119 10.2898 2.74424 10.4642C2.78703 10.5569 2.80483 10.6592 2.79588 10.7609C2.78693 10.8626 2.75154 10.9601 2.69321 11.0439L1.90778 12.192C1.82317 12.3159 1.78449 12.4654 1.79842 12.6147C1.81235 12.7641 1.87801 12.9039 1.98406 13.01L2.81839 13.8446C2.92452 13.9506 3.06437 14.0163 3.21376 14.0301C3.36315 14.044 3.51269 14.0053 3.63654 13.9206L4.7846 13.1353C4.86848 13.0771 4.96608 13.0418 5.06777 13.0329C5.16946 13.0239 5.27172 13.0416 5.36447 13.0843C5.53889 13.1675 5.71759 13.2413 5.89982 13.3056C5.99574 13.3408 6.08077 13.4006 6.14645 13.4789C6.21212 13.5571 6.25616 13.6513 6.27418 13.7519L6.5308 15.1195C6.55854 15.2669 6.63688 15.4 6.75232 15.4958C6.86775 15.5916 7.01301 15.6441 7.163 15.6441H8.34334C8.42787 15.6437 8.51147 15.6264 8.58928 15.5934C8.56914 15.5103 8.55844 15.4252 8.55739 15.3397V14.4882C8.55746 14.2964 8.60563 14.1076 8.69752 13.9392C8.7894 13.7708 8.92205 13.6281 9.08333 13.5243C9.51106 13.3307 9.95166 13.1668 10.402 13.034L9.91979 12.329ZM7.75292 10.5017C7.27306 10.5017 6.80398 10.3594 6.40499 10.0928C6.006 9.8262 5.69503 9.44728 5.51139 9.00395C5.32776 8.56063 5.27971 8.0728 5.37333 7.60216C5.46695 7.13153 5.69802 6.69922 6.03733 6.35991C6.37664 6.02061 6.80895 5.78954 7.27959 5.69593C7.75023 5.60232 8.23805 5.65037 8.68138 5.83401C9.12471 6.01765 9.50362 6.32863 9.7702 6.72762C10.0368 7.12662 10.1791 7.5957 10.1791 8.07555C10.179 8.71899 9.92341 9.33607 9.46843 9.79105C9.01344 10.246 8.39636 10.5017 7.75292 10.5017Z" fill="#569876"/>
<path d="M19.7608 14.1448L18.7741 13.9598C18.6817 13.9432 18.5952 13.9026 18.5234 13.842C18.4516 13.7815 18.3969 13.7032 18.3649 13.6149C18.3199 13.4872 18.2682 13.362 18.2099 13.2398C18.1704 13.1548 18.1537 13.0608 18.1618 12.9674C18.1698 12.8739 18.2021 12.7842 18.2556 12.7072L18.8223 11.8789C18.8682 11.8117 18.8893 11.7306 18.8817 11.6495C18.8742 11.5685 18.8386 11.4926 18.781 11.435L18.1789 10.8329C18.1213 10.7753 18.0454 10.7397 17.9644 10.7322C17.8833 10.7246 17.8022 10.7457 17.735 10.7916L16.9067 11.3582C16.8296 11.4117 16.7399 11.4441 16.6465 11.4521C16.553 11.4601 16.4591 11.4435 16.3741 11.4039C16.2518 11.3457 16.1266 11.294 15.999 11.249C15.9107 11.2169 15.8324 11.1623 15.7718 11.0905C15.7113 11.0186 15.6707 10.9322 15.6541 10.8397L15.4689 9.85296C15.4539 9.77295 15.4114 9.70071 15.3487 9.64872C15.2861 9.59673 15.2073 9.56826 15.1259 9.56824H14.2743C14.1929 9.56826 14.114 9.59673 14.0514 9.64872C13.9888 9.70071 13.9463 9.77295 13.9312 9.85296L13.7461 10.8397C13.7295 10.9322 13.6889 11.0186 13.6284 11.0904C13.5678 11.1622 13.4895 11.2169 13.4013 11.249C13.2736 11.294 13.1483 11.3458 13.0261 11.4039C12.941 11.4435 12.8471 11.4601 12.7537 11.4521C12.6602 11.4441 12.5705 11.4117 12.4935 11.3582L11.6652 10.7916C11.598 10.7457 11.5169 10.7246 11.4358 10.7322C11.3548 10.7397 11.2789 10.7753 11.2213 10.8329L10.6192 11.4349C10.5616 11.4925 10.526 11.5684 10.5185 11.6494C10.5109 11.7305 10.532 11.8116 10.5779 11.8788L11.1445 12.7071C11.198 12.7841 11.2304 12.8738 11.2384 12.9673C11.2465 13.0607 11.2298 13.1546 11.1902 13.2396C11.132 13.3619 11.0803 13.4871 11.0353 13.6148C11.0033 13.7031 10.9486 13.7814 10.8767 13.8419C10.8049 13.9025 10.7184 13.9431 10.626 13.9597L9.63924 14.1447C9.55922 14.1597 9.48697 14.2022 9.43497 14.2649C9.38298 14.3275 9.35451 14.4064 9.35449 14.4878V15.3393C9.3545 15.4207 9.38296 15.4995 9.43496 15.5622C9.48696 15.6248 9.55922 15.6673 9.63924 15.6823L10.626 15.8673C10.7184 15.884 10.8049 15.9246 10.8767 15.9851C10.9485 16.0456 11.0032 16.124 11.0352 16.2122C11.0802 16.3399 11.1319 16.4651 11.1901 16.5874C11.2298 16.6724 11.2464 16.7663 11.2384 16.8597C11.2303 16.9532 11.198 17.0429 11.1444 17.1199L10.5778 17.9482C10.5319 18.0154 10.5108 18.0966 10.5184 18.1776C10.5259 18.2587 10.5615 18.3345 10.6191 18.3921L11.2212 18.9943C11.2788 19.0518 11.3547 19.0875 11.4358 19.095C11.5168 19.1026 11.598 19.0815 11.6652 19.0355L12.4934 18.469C12.5704 18.4155 12.6602 18.3831 12.7536 18.375C12.8471 18.367 12.941 18.3836 13.026 18.4232C13.1483 18.4814 13.2735 18.5331 13.4012 18.5782C13.4895 18.6102 13.5678 18.6649 13.6283 18.7367C13.6888 18.8085 13.7294 18.895 13.746 18.9874L13.9312 19.9742C13.9462 20.0542 13.9887 20.1264 14.0513 20.1784C14.114 20.2304 14.1928 20.2589 14.2742 20.2589H15.1257C15.2071 20.2589 15.2859 20.2304 15.3486 20.1784C15.4112 20.1265 15.4537 20.0542 15.4688 19.9742L15.6539 18.9874C15.6705 18.895 15.7111 18.8085 15.7717 18.7367C15.8322 18.6649 15.9105 18.6102 15.9987 18.5782C16.1264 18.5331 16.2517 18.4814 16.3739 18.4232C16.459 18.3836 16.5529 18.367 16.6463 18.375C16.7398 18.3831 16.8295 18.4155 16.9065 18.469L17.7349 19.0357C17.8021 19.0817 17.8833 19.1027 17.9643 19.0952C18.0454 19.0877 18.1213 19.052 18.1789 18.9945L18.781 18.3923C18.8386 18.3347 18.8742 18.2589 18.8817 18.1778C18.8893 18.0968 18.8682 18.0156 18.8223 17.9485L18.2556 17.1201C18.2021 17.0431 18.1698 16.9534 18.1618 16.8599C18.1538 16.7665 18.1704 16.6726 18.21 16.5876C18.2682 16.4653 18.3199 16.3401 18.3649 16.2124C18.3969 16.1242 18.4516 16.0459 18.5234 15.9854C18.5952 15.9249 18.6816 15.8843 18.7741 15.8676L19.7608 15.6827C19.8408 15.6677 19.9131 15.6252 19.9651 15.5625C20.0171 15.4999 20.0456 15.421 20.0456 15.3396V14.4881C20.0456 14.4066 20.0172 14.3277 19.9652 14.265C19.9132 14.2024 19.8409 14.1598 19.7608 14.1448ZM14.7001 16.8949C14.3083 16.8949 13.9252 16.7787 13.5994 16.561C13.2736 16.3433 13.0197 16.0339 12.8697 15.6718C12.7198 15.3098 12.6805 14.9115 12.757 14.5272C12.8334 14.1428 13.0221 13.7898 13.2992 13.5128C13.5763 13.2357 13.9293 13.047 14.3136 12.9705C14.6979 12.8941 15.0963 12.9333 15.4583 13.0833C15.8203 13.2332 16.1297 13.4872 16.3474 13.813C16.5651 14.1388 16.6813 14.5218 16.6813 14.9136C16.6813 15.1738 16.6301 15.4315 16.5305 15.6718C16.431 15.9122 16.285 16.1306 16.101 16.3146C15.9171 16.4986 15.6987 16.6445 15.4583 16.7441C15.2179 16.8436 14.9603 16.8949 14.7001 16.8949Z" fill="#569876"/>
</g>
<defs>
<clipPath id="clip0_364_497">
<rect width="20.41" height="20.41" fill="white" transform="translate(0 0.258545)"/>
</clipPath>
</defs>
</svg>
