<svg width="21" height="22" viewBox="0 0 21 22" fill="none" xmlns="http://www.w3.org/2000/svg">
<path d="M13.8428 5.96648H11.3261C10.8627 5.96648 10.4871 6.34208 10.4871 6.80541V9.32218H13.8428C13.9382 9.32007 14.0287 9.36446 14.0854 9.44122C14.1422 9.51798 14.1581 9.61748 14.1281 9.70808L13.5073 11.5537C13.45 11.7231 13.2917 11.8376 13.113 11.839H10.4871V18.1309C10.4871 18.3625 10.2993 18.5503 10.0677 18.5503H7.97036C7.7387 18.5503 7.5509 18.3625 7.5509 18.1309V11.839H6.29251C6.06085 11.839 5.87305 11.6511 5.87305 11.4195V9.74164C5.87305 9.51001 6.06085 9.32218 6.29251 9.32218H7.5509V6.80541C7.5509 4.9521 9.05333 3.44971 10.9066 3.44971H13.8428C14.0745 3.44971 14.2623 3.63751 14.2623 3.86917V5.54702C14.2623 5.77868 14.0745 5.96648 13.8428 5.96648Z" fill="#CCE0D6"/>
</svg>
