<svg width="38" height="38" viewBox="0 0 38 38" fill="none" xmlns="http://www.w3.org/2000/svg">
<path fill-rule="evenodd" clip-rule="evenodd" d="M19.0592 4.38379C27.1571 4.38379 33.7219 10.9485 33.7219 19.0465C33.7219 27.1444 27.1571 33.7092 19.0592 33.7092C10.9612 33.7092 4.39648 27.1444 4.39648 19.0465C4.39648 10.9485 10.9612 4.38379 19.0592 4.38379ZM19.0592 5.59777C26.4867 5.59777 32.5079 11.619 32.5079 19.0465C32.5079 26.474 26.4867 32.4952 19.0592 32.4952C11.6317 32.4952 5.61047 26.474 5.61047 19.0465C5.61047 11.619 11.6317 5.59777 19.0592 5.59777Z" fill="#CCE0D6"/>
<path d="M23.8514 14.6481C25.1287 15.2902 25.9188 16.0554 26.3585 16.8383C26.7972 17.6193 26.8995 18.4395 26.7659 19.2181C26.6652 19.8053 26.4304 20.3674 26.1052 20.8665C26.4374 20.1375 26.6049 19.2273 26.3641 18.0765C26.0743 16.6914 25.1128 15.8083 23.9243 15.1644C22.9371 14.6296 21.7494 14.2373 20.5931 13.8553C20.37 13.7817 20.1482 13.7084 19.9292 13.6346C18.5503 13.1697 17.2803 12.6821 16.384 11.9448C15.7953 11.4607 15.3661 10.8677 15.187 10.0843C16.055 11.4398 17.3052 12.1412 18.7216 12.694C19.2495 12.9 19.8124 13.0896 20.3891 13.2838C20.655 13.3734 20.9239 13.464 21.1937 13.5576C22.0562 13.8569 22.9481 14.194 23.8514 14.6481L23.9987 14.3549L23.8514 14.6481Z" fill="#CCE0D6" stroke="#CCE0D6" stroke-width="0.656267"/>
<path fill-rule="evenodd" clip-rule="evenodd" d="M21.9407 22.9977C22.9719 22.6486 23.9599 21.9243 23.8001 20.5782C23.56 18.5566 20.6033 17.8783 18.8402 17.1052L16.002 15.3496C17.0368 19.4477 25.3761 18.4753 22.2532 22.5557C22.0083 22.8757 22.1867 22.5706 21.9407 22.9977Z" fill="#CCE0D6"/>
<path fill-rule="evenodd" clip-rule="evenodd" d="M10.9707 29.2C12.6285 29.6846 14.9236 28.3565 16.1445 27.6611C16.6925 27.3489 20.3475 25.3381 20.78 24.8579C17.3314 25.1223 12.5978 29.4638 10.9707 29.2Z" fill="#CCE0D6"/>
</svg>
