<svg width="403" height="166" viewBox="0 0 403 166" fill="none" xmlns="http://www.w3.org/2000/svg">
<g clip-path="url(#clip0_376_10204)">
<path d="M0 0.586182H403V150.586C403 158.87 396.284 165.586 388 165.586H15C6.71573 165.586 0 158.87 0 150.586V0.586182Z" fill="#80B198"/>
<path d="M266 139.086C266 205.084 212.498 258.586 146.5 258.586C80.5019 258.586 27 205.084 27 139.086C27 73.0881 80.5019 19.5862 146.5 19.5862C212.498 19.5862 266 73.0881 266 139.086ZM37.1721 139.086C37.1721 199.466 86.1198 248.414 146.5 248.414C206.88 248.414 255.828 199.466 255.828 139.086C255.828 78.706 206.88 29.7583 146.5 29.7583C86.1198 29.7583 37.1721 78.706 37.1721 139.086Z" fill="white"/>
<path d="M93.8844 133.403V125.684L116.828 92.8471H128.265V124.842H134.44V133.403H128.265V143.366H118.442V133.403H93.8844ZM119.074 103.372L104.69 124.842H119.074V103.372ZM146.167 143.857C144.389 143.857 142.916 143.319 141.746 142.243C140.624 141.121 140.062 139.741 140.062 138.104C140.062 136.466 140.624 135.11 141.746 134.034C142.916 132.911 144.389 132.35 146.167 132.35C147.897 132.35 149.324 132.911 150.447 134.034C151.569 135.11 152.131 136.466 152.131 138.104C152.131 139.741 151.569 141.121 150.447 142.243C149.324 143.319 147.897 143.857 146.167 143.857ZM167.48 116.282C162.803 113.85 160.464 110.084 160.464 104.986C160.464 102.46 161.095 100.168 162.358 98.1095C163.668 96.0045 165.609 94.3439 168.182 93.1278C170.802 91.8648 173.982 91.2333 177.725 91.2333C181.467 91.2333 184.624 91.8648 187.197 93.1278C189.816 94.3439 191.758 96.0045 193.021 98.1095C194.33 100.168 194.985 102.46 194.985 104.986C194.985 107.558 194.354 109.827 193.091 111.792C191.828 113.71 190.144 115.206 188.039 116.282C190.612 117.405 192.623 119.042 194.073 121.194C195.523 123.346 196.248 125.895 196.248 128.842C196.248 132.023 195.43 134.806 193.792 137.191C192.202 139.53 190.003 141.331 187.197 142.594C184.39 143.857 181.233 144.489 177.725 144.489C174.216 144.489 171.059 143.857 168.252 142.594C165.492 141.331 163.294 139.53 161.657 137.191C160.066 134.806 159.271 132.023 159.271 128.842C159.271 125.895 159.996 123.346 161.446 121.194C162.896 118.995 164.908 117.358 167.48 116.282ZM185.443 106.389C185.443 104.097 184.741 102.319 183.338 101.056C181.981 99.7934 180.11 99.1619 177.725 99.1619C175.386 99.1619 173.515 99.7934 172.111 101.056C170.755 102.319 170.077 104.12 170.077 106.459C170.077 108.564 170.778 110.248 172.182 111.511C173.632 112.774 175.479 113.405 177.725 113.405C179.97 113.405 181.818 112.774 183.268 111.511C184.718 110.201 185.443 108.494 185.443 106.389ZM177.725 120.562C175.058 120.562 172.883 121.241 171.199 122.597C169.562 123.954 168.743 125.895 168.743 128.421C168.743 130.76 169.539 132.677 171.129 134.174C172.766 135.624 174.965 136.349 177.725 136.349C180.484 136.349 182.66 135.601 184.25 134.104C185.84 132.607 186.636 130.713 186.636 128.421C186.636 125.942 185.817 124.024 184.18 122.667C182.543 121.264 180.391 120.562 177.725 120.562Z" fill="#515151"/>
</g>
<defs>
<clipPath id="clip0_376_10204">
<path d="M0 0.586182H403V150.586C403 158.87 396.284 165.586 388 165.586H15C6.71573 165.586 0 158.87 0 150.586V0.586182Z" fill="white"/>
</clipPath>
</defs>
</svg>
