<svg width="21" height="22" viewBox="0 0 21 22" fill="none" xmlns="http://www.w3.org/2000/svg">
<path fill-rule="evenodd" clip-rule="evenodd" d="M13.6248 3.44971H6.91337C4.59675 3.44971 2.71875 5.32771 2.71875 7.64433V14.3557C2.71875 16.6723 4.59675 18.5503 6.91337 18.5503H13.6248C15.9414 18.5503 17.8194 16.6723 17.8194 14.3557V7.64433C17.8194 5.32771 15.9414 3.44971 13.6248 3.44971ZM16.3513 14.3557C16.3467 15.8596 15.1286 17.0776 13.6248 17.0822H6.91337C5.40947 17.0776 4.19147 15.8596 4.18687 14.3557V7.64433C4.19147 6.14043 5.40947 4.92243 6.91337 4.91783H13.6248C15.1286 4.92243 16.3467 6.14043 16.3513 7.64433V14.3557ZM14.254 7.85406C14.7173 7.85406 15.0929 7.47846 15.0929 7.01514C15.0929 6.55182 14.7173 6.17621 14.254 6.17621C13.7906 6.17621 13.415 6.55182 13.415 7.01514C13.415 7.47846 13.7906 7.85406 14.254 7.85406ZM10.2691 7.22487C8.18411 7.22487 6.49391 8.91507 6.49391 11C6.49391 13.085 8.18411 14.7752 10.2691 14.7752C12.3541 14.7752 14.0442 13.085 14.0442 11C14.0465 9.9981 13.6494 9.03658 12.941 8.32812C12.2325 7.61966 11.271 7.22264 10.2691 7.22487ZM7.96203 11C7.96203 12.2742 8.99491 13.3071 10.2691 13.3071C11.5432 13.3071 12.5761 12.2742 12.5761 11C12.5761 9.72587 11.5432 8.69299 10.2691 8.69299C8.99491 8.69299 7.96203 9.72587 7.96203 11Z" fill="#CCE0D6"/>
</svg>
