<svg width="16" height="16" viewBox="0 0 16 16" fill="none" xmlns="http://www.w3.org/2000/svg">
<path fill-rule="evenodd" clip-rule="evenodd" d="M1.79797 0.449707H13.5429C14.4696 0.449707 15.2208 1.20091 15.2208 2.12756V13.8725C15.2208 14.7992 14.4696 15.5503 13.5429 15.5503H1.79797C0.871315 15.5503 0.120117 14.7992 0.120117 13.8725V2.12756C0.120117 1.20091 0.871315 0.449707 1.79797 0.449707ZM4.31474 13.0336C4.5464 13.0336 4.7342 12.8457 4.7342 12.6141V6.74164C4.7342 6.51001 4.5464 6.32218 4.31474 6.32218H3.05635C2.82469 6.32218 2.63689 6.51001 2.63689 6.74164V12.6141C2.63689 12.8457 2.82469 13.0336 3.05635 13.0336H4.31474ZM3.68555 5.48325C2.99056 5.48325 2.42716 4.91986 2.42716 4.22487C2.42716 3.52988 2.99056 2.96648 3.68555 2.96648C4.38054 2.96648 4.94393 3.52988 4.94393 4.22487C4.94393 4.91986 4.38054 5.48325 3.68555 5.48325ZM12.2845 13.0336C12.5162 13.0336 12.704 12.8457 12.704 12.6141V8.75506C12.7313 7.42184 11.7456 6.28403 10.4221 6.12084C9.49678 6.03632 8.60022 6.46849 8.0899 7.245V6.74164C8.0899 6.51001 7.90207 6.32218 7.67044 6.32218H6.41205C6.18042 6.32218 5.99259 6.51001 5.99259 6.74164V12.6141C5.99259 12.8457 6.18042 13.0336 6.41205 13.0336H7.67044C7.90207 13.0336 8.0899 12.8457 8.0899 12.6141V9.46815C8.0899 8.77318 8.65332 8.20976 9.34829 8.20976C10.0433 8.20976 10.6067 8.77318 10.6067 9.46815V12.6141C10.6067 12.8457 10.7945 13.0336 11.0261 13.0336H12.2845Z" fill="#CCE0D6"/>
</svg>
