<svg width="57" height="57" viewBox="0 0 57 57" fill="none" xmlns="http://www.w3.org/2000/svg">
<path fill-rule="evenodd" clip-rule="evenodd" d="M28.5 6.1575C40.8395 6.1575 50.8426 16.1606 50.8426 28.5001C50.8426 40.8395 40.8395 50.8426 28.5 50.8426C16.1606 50.8426 6.15747 40.8395 6.15747 28.5001C6.15747 16.1606 16.1606 6.1575 28.5 6.1575ZM28.5 8.00733C39.8178 8.00733 48.9927 17.1823 48.9927 28.5001C48.9927 39.8178 39.8178 48.9928 28.5 48.9928C17.1823 48.9928 8.0073 39.8178 8.0073 28.5001C8.0073 17.1823 17.1823 8.00733 28.5 8.00733Z" fill="black"/>
<path d="M22.5981 14.8443C23.9207 16.9097 25.8257 17.9786 27.984 18.8209C28.7885 19.1348 29.6461 19.4237 30.5248 19.7196C30.9301 19.8561 31.3398 19.9941 31.7509 20.1368C33.0652 20.5929 34.4242 21.1065 35.8006 21.7985L35.8006 21.7985C37.7469 22.7768 38.9509 23.9429 39.6209 25.1358C40.2893 26.3259 40.4453 27.5756 40.2417 28.7621C40.0882 29.6569 39.7304 30.5134 39.235 31.2738C39.7412 30.1631 39.9964 28.7761 39.6295 27.0225C39.1879 24.912 37.7227 23.5664 35.9118 22.5852C34.4074 21.7702 32.5977 21.1724 30.8357 20.5905C30.4959 20.4782 30.1578 20.3666 29.8241 20.2541C27.7229 19.5457 25.7879 18.8027 24.422 17.6793C23.5251 16.9416 22.871 16.0379 22.5981 14.8443Z" fill="black" stroke="black"/>
<path fill-rule="evenodd" clip-rule="evenodd" d="M32.8899 34.5214C34.4611 33.9894 35.9667 32.8857 35.7231 30.8347C35.3573 27.7541 30.852 26.7206 28.1654 25.5425L23.8406 22.8674C25.4175 29.1119 38.1246 27.6303 33.3661 33.8478C32.9929 34.3355 33.2647 33.8706 32.8899 34.5214Z" fill="black"/>
<path fill-rule="evenodd" clip-rule="evenodd" d="M16.1748 43.9725C18.7009 44.7108 22.1981 42.6872 24.0585 41.6275C24.8935 41.1519 30.463 38.0879 31.122 37.3561C25.867 37.759 18.6541 44.3745 16.1748 43.9725Z" fill="black"/>
</svg>
