<svg width="403" height="166" viewBox="0 0 403 166" fill="none" xmlns="http://www.w3.org/2000/svg">
<g clip-path="url(#clip0_376_10287)">
<path d="M0 0.586182H403V150.586C403 158.87 396.284 165.586 388 165.586H15C6.71573 165.586 0 158.87 0 150.586V0.586182Z" fill="#80B198"/>
<path fill-rule="evenodd" clip-rule="evenodd" d="M49.1875 182.524H217.812C227.615 182.524 235.563 174.576 235.563 164.774V67.1487C235.563 57.3462 227.615 49.3987 217.812 49.3987H213.375C213.375 44.4997 209.399 40.5237 204.5 40.5237H195.625C190.726 40.5237 186.75 44.4997 186.75 49.3987H177.875C177.875 49.3987 172.883 48.844 169 44.9612L160.125 36.0862C160.125 36.0862 157.072 31.6487 151.25 31.6487H115.75C110.341 31.6487 106.875 36.0862 106.875 36.0862L98 44.9612C94.1172 48.844 89.125 49.3987 89.125 49.3987H49.1875C39.3851 49.3987 31.4375 57.3462 31.4375 67.1487V164.774C31.4375 174.576 39.3851 182.524 49.1875 182.524ZM217.812 58.2737C222.712 58.2737 226.688 62.2497 226.688 67.1487V164.774C226.688 169.673 222.712 173.649 217.812 173.649H49.1875C44.2885 173.649 40.3125 169.673 40.3125 164.774V67.1487C40.3125 62.2497 44.2885 58.2737 49.1875 58.2737L90.1057 58.2116C91.4547 58.0651 98.4837 57.0223 104.275 51.2314L113.536 41.9747L113.868 41.5487C114.086 41.3136 115.071 40.5237 115.75 40.5237H151.25C152.07 40.5237 152.728 41.0438 152.808 41.1075C152.813 41.1114 152.816 41.1136 152.816 41.1139L153.278 41.7839L162.73 51.2358C168.516 57.0223 175.545 58.0696 176.899 58.216L195.319 58.2426C195.365 58.2446 195.412 58.2512 195.458 58.2578C195.514 58.2658 195.569 58.2737 195.625 58.2737H204.5C204.531 58.2737 204.56 58.2692 204.589 58.2648C204.618 58.2604 204.646 58.2559 204.678 58.2559L217.812 58.2737ZM195.625 151.461C195.625 153.915 197.609 155.899 200.063 155.899H208.938C211.391 155.899 213.375 153.915 213.375 151.461C213.375 149.007 211.391 147.024 208.938 147.024H200.063C197.609 147.024 195.625 149.007 195.625 151.461ZM195.625 133.711C195.625 136.165 197.609 138.149 200.063 138.149H208.938C211.391 138.149 213.375 136.165 213.375 133.711C213.375 131.257 211.391 129.274 208.938 129.274H200.063C197.609 129.274 195.625 131.257 195.625 133.711ZM173.438 95.9924C173.438 107.02 182.379 115.961 193.406 115.961C204.433 115.961 213.375 107.02 213.375 95.9924C213.375 84.9652 204.433 76.0237 193.406 76.0237C182.379 76.0237 173.438 84.9652 173.438 95.9924ZM182.312 95.9924C182.312 89.8642 187.278 84.8987 193.406 84.8987C199.534 84.8987 204.5 89.8642 204.5 95.9924C204.5 102.121 199.534 107.086 193.406 107.086C187.278 107.086 182.312 102.121 182.312 95.9924ZM191.188 133.711C191.188 131.257 189.204 129.274 186.75 129.274H177.875C175.426 129.274 173.438 131.257 173.438 133.711C173.438 136.165 175.426 138.149 177.875 138.149H186.75C189.204 138.149 191.188 136.165 191.188 133.711ZM186.75 147.024H177.875C175.426 147.024 173.438 149.007 173.438 151.461C173.438 153.915 175.426 155.899 177.875 155.899H186.75C189.204 155.899 191.188 153.915 191.188 151.461C191.188 149.007 189.204 147.024 186.75 147.024Z" fill="white"/>
<path fill-rule="evenodd" clip-rule="evenodd" d="M155.688 160.336H58.0625C55.6086 160.336 53.625 158.353 53.625 155.899V76.0237C53.625 73.5742 55.6086 71.5862 58.0625 71.5862H155.688C158.141 71.5862 160.125 73.5742 160.125 76.0237V155.899C160.125 158.353 158.141 160.336 155.688 160.336ZM125.459 146.749C125.925 147.583 127.225 149.735 127.816 151.461H85.7969C86.3826 149.735 87.8248 147.583 88.2908 146.749C88.3085 146.717 89.2493 143.487 96.7486 143.11H96.7575C99.2425 143.11 102.495 141.388 102.495 136.928C102.495 135.815 102.406 132.069 102.406 132.069L102.415 132.078C102.424 132.078 102.464 128.417 102.464 128.417C102.464 128.417 100.614 127.561 98.1109 125.018C96.6466 123.656 94.6541 119.76 94.6541 119.76C94.2548 117.053 93.6823 112.314 93.6823 109.616C93.6823 103.51 99.8549 98.1446 106.875 98.1446C113.58 98.1446 120.068 103.984 120.068 109.616C120.068 112.245 119.393 116.815 118.989 119.551L118.958 119.76C118.958 119.76 117.103 123.656 115.639 125.018C113.132 127.565 111.144 128.417 111.144 128.417C111.144 128.417 111.184 132.078 111.193 132.078L111.202 132.069C111.202 132.069 111.113 135.815 111.113 136.928C111.113 141.388 114.228 143.11 116.713 143.11H116.722C124.226 143.487 125.441 146.717 125.459 146.749ZM62.5 80.4612H151.25V151.461H138.883C138.022 149.424 136.81 146.913 135.426 144.974C135.337 144.925 132.59 135.162 117.849 134.98C117.88 134.94 120.223 132.899 121.332 131.812C122.242 131.244 126.293 128.089 127.323 122.458C127.634 120.492 128.965 113.485 128.965 109.62C128.965 98.1313 120.405 89.3184 107.092 89.3184H106.658C93.8243 89.3184 84.51 98.1313 84.51 109.62C84.51 113.489 85.9788 120.496 86.2894 122.458C87.3189 128.084 91.7831 131.244 92.6928 131.812C93.8021 132.899 94.7606 134.248 95.9011 134.98C81.1597 135.162 78.4129 144.925 78.3241 144.974C76.9396 146.913 75.7326 149.424 74.8673 151.461H62.5V80.4612Z" fill="#515151"/>
</g>
<defs>
<clipPath id="clip0_376_10287">
<path d="M0 0.586182H403V150.586C403 158.87 396.284 165.586 388 165.586H15C6.71573 165.586 0 158.87 0 150.586V0.586182Z" fill="white"/>
</clipPath>
</defs>
</svg>
