<svg width="14" height="14" viewBox="0 0 14 14" fill="none" xmlns="http://www.w3.org/2000/svg">
<g clip-path="url(#clip0_547_849)">
<path d="M7.64451 5.12691H8.73669V6.21909C8.73669 6.51943 8.98242 6.76517 9.28277 6.76517C9.58312 6.76517 9.82886 6.51943 9.82886 6.21909V5.12691H10.921C11.2214 5.12691 11.4671 4.88118 11.4671 4.58083C11.4671 4.28048 11.2214 4.03474 10.921 4.03474H9.82886V2.94257C9.82886 2.64222 9.58312 2.39648 9.28277 2.39648C8.98242 2.39648 8.73669 2.64222 8.73669 2.94257V4.03474H7.64451C7.34417 4.03474 7.09843 4.28048 7.09843 4.58083C7.09843 4.88118 7.34417 5.12691 7.64451 5.12691ZM10.4896 9.09696L9.10256 8.93859C8.76945 8.90037 8.4418 9.01504 8.20698 9.24986L7.20218 10.2547C5.65676 9.4683 4.38984 8.20684 3.60348 6.65595L4.61374 5.64569C4.84855 5.41088 4.96323 5.07777 4.92501 4.75011L4.76664 3.37398C4.70657 2.82243 4.23694 2.40195 3.68539 2.40195H2.74066C2.12359 2.40195 1.61026 2.91527 1.64849 3.53234C1.93792 8.19592 5.66768 11.9202 10.3258 12.2096C10.9429 12.2479 11.4562 11.7346 11.4562 11.1175V10.1727C11.4617 9.62666 11.0412 9.15703 10.4896 9.09696Z" fill="#CCE0D6"/>
</g>
<defs>
<clipPath id="clip0_547_849">
<rect width="13.1061" height="13.1061" fill="white" transform="translate(0 0.758301)"/>
</clipPath>
</defs>
</svg>
