<svg width="75" height="76" viewBox="0 0 75 76" fill="none" xmlns="http://www.w3.org/2000/svg">
<path fill-rule="evenodd" clip-rule="evenodd" d="M74.165 45.9927C74.712 43.4437 75 40.7986 75 38.0862C75 17.3755 58.2107 0.586182 37.5 0.586182C16.7893 0.586182 0 17.3755 0 38.0862C0 58.7969 16.7893 75.5862 37.5 75.5862C47.1031 75.5862 55.8632 71.9765 62.4973 66.0399L61.5 65.0425C55.122 70.7251 46.7143 74.178 37.5 74.178C17.567 74.178 1.40819 58.0191 1.40819 38.0862C1.40819 18.1532 17.567 1.99437 37.5 1.99437C57.433 1.99437 73.5918 18.1532 73.5918 38.0862C73.5918 40.6818 73.3178 43.2135 72.7971 45.6538L74.165 45.9927ZM64.8937 61.5862C64.8789 61.601 65.5532 62.258 65.8922 62.5847C67.8141 60.3594 69.4788 57.9057 70.84 55.2699L69.6079 54.5862C68.31 57.1066 66.7241 59.4544 64.8937 61.5862ZM73.2319 49.4983C72.8851 50.5851 72.4901 51.6504 72.0494 52.6916L70.776 52.0862C71.2034 51.0716 71.5857 50.0335 71.9205 48.9741L73.2319 49.4983Z" fill="url(#paint0_linear_253_375)"/>
<defs>
<linearGradient id="paint0_linear_253_375" x1="37.5" y1="0.586182" x2="37.5" y2="75.5862" gradientUnits="userSpaceOnUse">
<stop stop-color="#2C7E54"/>
<stop offset="1" stop-color="#50E498"/>
</linearGradient>
</defs>
</svg>
