<svg width="17" height="14" viewBox="0 0 17 14" fill="none" xmlns="http://www.w3.org/2000/svg">
<path d="M15.9965 2.56873C15.6069 3.08846 15.1359 3.54182 14.6018 3.91131C14.6018 4.04707 14.6018 4.18284 14.6018 4.32615C14.6061 6.79162 13.6213 9.15571 11.8682 10.8884C10.115 12.6211 7.74015 13.5775 5.2761 13.5431C3.85156 13.5479 2.44525 13.2227 1.16736 12.5928C1.09845 12.5627 1.05401 12.4945 1.05427 12.4193V12.3363C1.05427 12.228 1.14203 12.1403 1.25029 12.1403C2.65058 12.094 4.00091 11.6086 5.11024 10.7524C3.84278 10.7269 2.7024 9.97601 2.17758 8.82149C2.15108 8.75848 2.15932 8.68608 2.19936 8.63063C2.2394 8.57518 2.30543 8.54464 2.37359 8.55001C2.7588 8.58868 3.14786 8.55286 3.51952 8.44439C2.12035 8.15395 1.06903 6.99238 0.91857 5.57065C0.913226 5.50245 0.943788 5.43643 0.999224 5.39632C1.05465 5.35631 1.12694 5.348 1.18998 5.3746C1.56545 5.54028 1.97077 5.62753 2.38113 5.63097C1.15513 4.82633 0.625575 3.29578 1.09197 1.90499C1.14011 1.76985 1.25578 1.67001 1.39645 1.64217C1.53713 1.61433 1.68208 1.66259 1.77801 1.76923C3.43243 3.53001 5.70562 4.57926 8.11825 4.69573C8.05651 4.44914 8.02614 4.19571 8.02782 3.94148C8.05038 2.60843 8.87522 1.42092 10.1162 0.934898C11.357 0.448884 12.7684 0.760536 13.6896 1.72397C14.3175 1.60434 14.9245 1.39344 15.4914 1.09793C15.5329 1.07201 15.5856 1.07201 15.6271 1.09793C15.6531 1.13948 15.6531 1.19215 15.6271 1.2337C15.3526 1.86246 14.8887 2.3898 14.3003 2.74221C14.8156 2.68245 15.3218 2.5609 15.8081 2.38017C15.849 2.3523 15.9028 2.3523 15.9437 2.38017C15.9781 2.39586 16.0037 2.42587 16.0139 2.4622C16.024 2.49854 16.0177 2.5375 15.9965 2.56873Z" fill="#CCE0D6"/>
</svg>
